# exported with NifSkope

mtllib vurt_bigfern.mtl

# VolcanicGrassObj02:0

g VolcanicGrassObj02:0
usemtl Material.000001

v -4.4289703369140625 14.037097930908203 41.799434661865234
v -19.486162185668945 1.5281987190246582 46.885929107666016
v -10.590807914733887 -10.31917667388916 41.586757659912109
v -11.734883308410645 27.004673004150391 28.96837043762207
v -23.400815963745117 43.261928558349609 19.421110153198242
v -28.193647384643555 41.160427093505859 17.170993804931641
v -4.4289669990539551 14.037097930908203 41.799434661865234
v -10.590804100036621 -10.31917667388916 41.586757659912109
v 4.5473356246948242 4.9708385467529297 34.881309509277344
v -19.48615837097168 1.5281987190246582 46.885929107666016
v -20.555463790893555 -17.244260787963867 39.914104461669922
v -29.373882293701172 -5.2761001586914063 43.242057800292969
v 0.12848624587059021 10.610552787780762 66.437469482421875
v 0.36172693967819214 10.814488410949707 66.42376708984375
v -0.54633820056915283 6.1275877952575684 -0.39804661273956299
v 0.44273343682289124 6.9923877716064453 -0.45614975690841675
v 0.34773477911949158 10.596484184265137 66.437362670898438
v 0.38339853286743164 6.0678920745849609 -0.39846393465995789
v 0.14247837662696838 10.828570365905762 66.423858642578125
v -0.4870135486125946 7.0520730018615723 -0.45573922991752625
v 10.535554885864258 8.1904230117797852 56.870208740234375
v -6.7311291694641113 11.223516464233398 52.353824615478516
v 5.083986759185791 8.9733152389526367 81.422157287597656
v -12.38308048248291 13.712904930114746 77.041595458984375
v 3.4372377395629883 8.6066684722900391 94.402275085449219
v -13.05339241027832 13.261510848999023 90.262214660644531
v -2.4319496154785156 18.799388885498047 91.044357299804688
v -7.0697422027587891 5.6432271003723145 91.506195068359375
v 0.47761639952659607 17.849384307861328 79.69219970703125
v -5.6260104179382324 1.2714589834213257 80.100006103515625
v 1.7267014980316162 16.45738410949707 61.392322540283203
v -1.5577018260955811 2.9301369190216064 62.354335784912109
v 4.7877469062805176 46.475234985351563 53.805271148681641
v -15.112692832946777 49.59014892578125 46.703601837158203
v 4.549839973449707 28.280624389648438 51.056255340576172
v -15.130838394165039 32.444149017333984 42.226287841796875
v 7.9637966156005859 7.3012619018554688 32.287784576416016
v -11.936643600463867 10.416169166564941 25.186092376708984
v -0.032822065055370331 -1.5770431756973267 42.267578125
v 0.4548705518245697 22.352426528930664 40.095436096191406
v -15.690654754638672 2.5205936431884766 63.209438323974609
v -13.125176429748535 27.065244674682617 61.772087097167969
v -26.808429718017578 9.1200685501098633 69.251457214355469
v -26.320718765258789 33.049541473388672 67.079277038574219
v -6.3197774887084961 12.333505630493164 35.177238464355469
v 7.7196521759033203 4.229682445526123 29.475185394287109
v 11.79596996307373 27.130699157714844 48.019294738769531
v 25.060506820678711 17.885778427124023 38.764144897460938
v 20.476776123046875 38.682750701904297 49.265045166015625
v 32.532680511474609 30.717910766601563 38.468196868896484
v -18.704961776733398 48.326374053955078 16.917608261108398
v -23.400814056396484 43.261928558349609 19.421110153198242
v 1.387671947479248 38.522224426269531 26.207607269287109
v -11.734880447387695 27.004673004150391 28.96837043762207
v 15.477831840515137 19.606630325317383 18.076259613037109
v 2.3552777767181396 8.0891017913818359 20.83702278137207
v -24.653831481933594 18.996114730834961 22.175811767578125
v -28.193641662597656 41.160427093505859 17.170993804931641
v -10.563667297363281 0.080527238547801971 14.04447078704834
v 5.554842472076416 20.793914794921875 32.261833190917969
v -3.0377976894378662 0.86101311445236206 32.503742218017578
v -14.813497543334961 30.852550506591797 52.117771148681641
v -25.018993377685547 11.020603179931641 51.071365356445313
v -28.210138320922852 36.269485473632813 52.013885498046875
v -37.991378784179688 17.566461563110352 50.868129730224609
v 0.83019334077835083 -4.0098795890808105 34.99163818359375
v -0.65462630987167358 17.352109909057617 31.431694030761719
v 14.575962066650391 0.39293357729911804 61.486415863037109
v 14.942682266235352 22.300510406494141 57.187957763671875
v 27.980764389038086 2.4866864681243896 66.461502075195313
v 28.514801025390625 23.203880310058594 62.302021026611328
v 2.1447279453277588 21.739625930786133 22.935369491577148
v -1.4226481914520264 6.7589311599731445 29.262138366699219
v 25.531734466552734 13.0609130859375 20.128850936889648
v 21.964351654052734 -1.9197701215744019 26.45562744140625
v -5.6816625595092773 -9.9997043609619141 25.589874267578125
v 37.629932403564453 10.237994194030762 9.1897468566894531
v 34.062557220458984 -4.7427029609680176 15.516515731811523
v 17.705341339111328 -18.678417205810547 22.783351898193359
v 29.803531646728516 -21.50135612487793 11.844253540039063
v 6.9406833648681641 52.117469787597656 57.403358459472656
v -5.1030697822570801 46.910186767578125 57.857471466064453
v 6.5111417770385742 33.992393493652344 57.907390594482422
v -4.9884915351867676 28.937892913818359 58.299263000488281
v -16.721467971801758 45.497245788574219 50.675067901611328
v 12.696724891662598 14.544191360473633 43.793991088867188
v 0.65297472476959229 9.3369283676147461 44.248119354248047
v -15.98087215423584 27.700742721557617 51.045272827148438
v -10.965423583984375 7.9239969253540039 37.065727233886719
v 14.307328224182129 4.8939886093139648 26.055301666259766
v -1.5228742361068726 9.9176197052001953 33.333473205566406
v 2.0443503856658936 -18.793205261230469 19.407583236694336
v -13.78583812713623 -13.769571304321289 26.685760498046875
v -15.547446250915527 18.286312103271484 30.849103927612305
v -6.5798745155334473 -32.369510650634766 7.5572338104248047
v -27.810420989990234 -5.4008803367614746 24.201375961303711
v -22.410072326660156 -27.345884323120117 14.835397720336914
v -36.434665679931641 -18.977184295654297 12.351020812988281
v 1.483075737953186 -34.872299194335938 49.261440277099609
v 7.5190396308898926 -26.366216659545898 57.235633850097656
v -4.765108585357666 -17.868860244750977 48.366767883300781
v 0.99721509218215942 -9.6627283096313477 55.942913055419922
v 19.566791534423828 -20.22642707824707 59.628314971923828
v -6.355933666229248 0.85016548633575439 32.157218933105469
v -0.31997323036193848 9.356231689453125 40.131416320800781
v 12.730151176452637 -3.8680474758148193 57.877670288085938
v 11.727786064147949 15.496004104614258 42.52410888671875
v -15.070134162902832 -28.393976211547852 62.413082122802734
v -3.8292319774627686 -22.789897918701172 66.23541259765625
v -13.499704360961914 -10.833855628967285 58.154758453369141
v -2.7438960075378418 -5.4153094291687012 61.745704650878906
v 9.7528314590454102 -22.957334518432617 64.218002319335938
v -12.106130599975586 3.6925652027130127 38.086795806884766
v -0.86523467302322388 9.2966289520263672 41.909156799316406
v 10.280054092407227 -5.7962055206298828 59.462081909179688
v 12.716825485229492 9.1291818618774414 39.891757965087891
vt 0.60569393634796143 0.0076964497566223145
vt 0.55106639862060547 0.16461849212646484
vt 0.30117660760879517 0.16395825147628784
vt 0.36944213509559631 0.72821515798568726
vt 0.28047642111778259 1.0067088603973389
vt -0.028291318565607071 0.97337329387664795
vt 0.60569393634796143 0.0076964497566223145
vt 0.30117660760879517 0.16395825147628784
vt 0.28459113836288452 0.0041527748107910156
vt 0.55106639862060547 0.16461849212646484
vt 0.38841253519058228 0.23490440845489502
vt 0.54274487495422363 0.24397313594818115
vt 0.87497371435165405 0.90330213308334351
vt 0.94280159473419189 0.90341454744338989
vt 0.87457811832427979 0.55168610811233521
vt 0.9424060583114624 0.55179762840270996
vt 0.86515688896179199 0.91536951065063477
vt 0.86924731731414795 0.53573727607727051
vt 0.93745982646942139 0.91648447513580322
vt 0.94155043363571167 0.53685206174850464
vt 0.046985901892185211 0.00023436546325683594
vt 0.29765111207962036 0.0043272972106933594
vt 0.025402486324310303 0.20843374729156494
vt 0.30434685945510864 0.18163919448852539
vt 0.044730342924594879 0.30800920724868774
vt 0.28529173135757446 0.30566012859344482
vt 0.68399655818939209 0.50212019681930542
vt 0.93070304393768311 0.50223898887634277
vt 0.55958807468414307 0.31590574979782104
vt 1.0087581872940063 0.30752110481262207
vt 0.59412848949432373 0.004763484001159668
vt 0.97863376140594482 0.0070594549179077148
vt 0.66054838895797729 0.99212181568145752
vt 0.025236278772354126 1.003017783164978
vt 0.80526053905487061 0.71520036458969116
vt -0.0054510124027729034 0.73958736658096313
vt 0.60564982891082764 0.38244974613189697
vt 0.053784310817718506 0.37099361419677734
vt 0.57049095630645752 0.0066519975662231445
vt 0.99572157859802246 0.0058382749557495117
vt 0.5501442551612854 0.31916147470474243
vt 0.99991250038146973 0.32203066349029541
vt 0.6644977331161499 0.51042735576629639
vt 1.0003213882446289 0.50067257881164551
vt 0.28459113836288452 0.0041527748107910156
vt 0.60569393634796143 0.0076964497566223145
vt 0.30117660760879517 0.16395825147628784
vt 0.55106639862060547 0.16461849212646484
vt 0.38841253519058228 0.23490440845489502
vt 0.54274487495422363 0.24397313594818115
vt 0.41050407290458679 0.99910068511962891
vt 0.28047642111778259 1.0067088603973389
vt 0.81239360570907593 0.73252791166305542
vt 0.36944213509559631 0.72821515798568726
vt 0.65342080593109131 0.39031326770782471
vt 0.43696698546409607 0.35768842697143555
vt -0.025752205401659012 0.69786006212234497
vt -0.028291318565607071 0.97337329387664795
vt 0.10137718915939331 0.3362739086151123
vt 0.046985901892185211 0.00023436546325683594
vt 0.29765111207962036 0.0043272972106933594
vt 0.025402486324310303 0.20843374729156494
vt 0.30434685945510864 0.18163919448852539
vt 0.044730342924594879 0.30800920724868774
vt 0.28529173135757446 0.30566012859344482
vt 0.046985901892185211 0.00023436546325683594
vt 0.29765111207962036 0.0043272972106933594
vt 0.025402486324310303 0.20843374729156494
vt 0.30434685945510864 0.18163919448852539
vt 0.044730342924594879 0.30800920724868774
vt 0.28529173135757446 0.30566012859344482
vt 0.10137718915939331 0.3362739086151123
vt 0.43696698546409607 0.35768842697143555
vt -0.025752205401659012 0.69786006212234497
vt 0.36944213509559631 0.72821515798568726
vt 0.65342080593109131 0.39031326770782471
vt -0.028291318565607071 0.97337329387664795
vt 0.28047642111778259 1.0067088603973389
vt 0.81239360570907593 0.73252791166305542
vt 0.41050407290458679 0.99910068511962891
vt 0.9699547290802002 0.51568698883056641
vt 0.83444678783416748 0.50694578886032104
vt 0.99188065528869629 0.32181406021118164
vt 0.81021684408187866 0.30546063184738159
vt 0.64735507965087891 0.48142516613006592
vt 1.0146714448928833 0.03125298023223877
vt 0.77187526226043701 0.010591268539428711
vt 0.54576241970062256 0.2916749119758606
vt 0.58180314302444458 0.010402679443359375
vt 0.10137718915939331 0.3362739086151123
vt 0.43696698546409607 0.35768842697143555
vt -0.025752205401659012 0.69786006212234497
vt 0.36944213509559631 0.72821515798568726
vt 0.65342080593109131 0.39031326770782471
vt -0.028291318565607071 0.97337329387664795
vt 0.81239360570907593 0.73252791166305542
vt 0.28047642111778259 1.0067088603973389
vt 0.41050407290458679 0.99910068511962891
vt 0.9699547290802002 0.51568698883056641
vt 0.83444678783416748 0.50694578886032104
vt 0.99188065528869629 0.32181406021118164
vt 0.81021684408187866 0.30546063184738159
vt 0.64735507965087891 0.48142516613006592
vt 1.0146714448928833 0.03125298023223877
vt 0.77187526226043701 0.010591268539428711
vt 0.54576241970062256 0.2916749119758606
vt 0.58180314302444458 0.010402679443359375
vt 0.9699547290802002 0.51568698883056641
vt 0.83444678783416748 0.50694578886032104
vt 0.99188065528869629 0.32181406021118164
vt 0.81021684408187866 0.30546063184738159
vt 0.64735507965087891 0.48142516613006592
vt 1.0146714448928833 0.03125298023223877
vt 0.77187526226043701 0.010591268539428711
vt 0.54576241970062256 0.2916749119758606
vt 0.58180314302444458 0.010402679443359375
vn 0.39797341823577881 -0.10861873626708984 0.91094410419464111
vn 0.39797341823577881 -0.10861873626708984 0.91094410419464111
vn 0.39797341823577881 -0.10861873626708984 0.91094410419464111
vn -0.47732570767402649 0.16437837481498718 0.86321485042572021
vn -0.47732570767402649 0.16437837481498718 0.86321485042572021
vn -0.47732570767402649 0.16437837481498718 0.86321485042572021
vn 0.513846755027771 -0.1373961865901947 0.84680801630020142
vn 0.30995574593544006 -0.25178572535514832 0.9168049693107605
vn 0.513846755027771 -0.1373961865901947 0.84680801630020142
vn -0.011139714159071445 -0.3475571870803833 0.93759262561798096
vn -0.011139714159071445 -0.3475571870803833 0.93759262561798096
vn -0.10977823287248611 -0.34053510427474976 0.93380111455917358
vn -0.6590542197227478 0.75082463026046753 -0.043702978640794754
vn -0.6590542197227478 0.75082463026046753 -0.043702978640794754
vn -0.6590542197227478 0.75082463026046753 -0.043702978640794754
vn -0.6590542197227478 0.75082463026046753 -0.043702978640794754
vn 0.74962025880813599 0.66038095951080322 -0.044344842433929443
vn 0.74962025880813599 0.66038095951080322 -0.044344842433929443
vn 0.74962025880813599 0.66038095951080322 -0.044344842433929443
vn 0.74962025880813599 0.66038095951080322 -0.044344842433929443
vn 0.17130540311336517 0.98519569635391235 0.006622703280299902
vn 0.22095876932144165 0.975178062915802 -0.014313478022813797
vn 0.23002295196056366 0.973133385181427 0.010040798224508762
vn 0.25962334871292114 0.9654306173324585 0.023224784061312675
vn 0.25416144728660583 0.96573954820632935 0.052431449294090271
vn 0.26060318946838379 0.96434402465820313 0.04611443355679512
vn 0.91343790292739868 -0.31285187602043152 0.26029777526855469
vn 0.91301238536834717 -0.32145890593528748 0.25114250183105469
vn 0.92322671413421631 -0.32932943105697632 0.19797599315643311
vn 0.93798750638961792 -0.29777935147285461 0.17750166356563568
vn 0.94872593879699707 -0.28099226951599121 0.14478403329849243
vn 0.95554101467132568 -0.21787330508232117 0.19867686927318573
vn -0.35173550248146057 -0.13535323739051819 0.92626219987869263
vn -0.39589467644691467 -0.18143638968467712 0.90019345283508301
vn -0.41814360022544861 -0.34596559405326843 0.83991891145706177
vn -0.41325908899307251 -0.50246620178222656 0.75943702459335327
vn -0.38705086708068848 -0.62388348579406738 0.67894113063812256
vn -0.34998857975006104 -0.60439229011535645 0.71569406986236572
vn 0.8038439154624939 0.037477374076843262 0.59365850687026978
vn 0.82354217767715454 -0.009400196373462677 0.56717711687088013
vn 0.7259560227394104 -0.0059208176098763943 0.68771564960479736
vn 0.59381067752838135 0.0068361805751919746 0.80457574129104614
vn 0.44029659032821655 0.038118064403533936 0.89704287052154541
vn 0.40107598900794983 0.074679046869277954 0.91299563646316528
vn -0.043336816132068634 -0.62404865026473999 0.78018283843994141
vn 0.023804984986782074 -0.63168954849243164 0.7748558521270752
vn 0.13666518032550812 -0.552337646484375 0.82234162092208862
vn 0.33290186524391174 -0.44020706415176392 0.83390289545059204
vn 0.44182422757148743 -0.32484486699104309 0.83622199296951294
vn 0.52623999118804932 -0.2879779040813446 0.80008763074874878
vn -0.12744802236557007 0.53197985887527466 0.83711075782775879
vn -0.14813892543315887 0.4706023633480072 0.86982083320617676
vn 0.012695987708866596 0.28239306807518005 0.95921474695205688
vn -0.0388200543820858 -0.061404027044773102 0.99735778570175171
vn 0.33085411787033081 -0.15378421545028687 0.93106710910797119
vn 0.0087283486500382423 -0.38939115405082703 0.92103111743927002
vn -0.28956592082977295 -0.30296370387077332 0.90794521570205688
vn -0.51500701904296875 0.10971565544605255 0.8501354455947876
vn -0.15280851721763611 -0.48418325185775757 0.86151969432830811
vn -0.60834068059921265 0.25309649109840393 -0.7522391676902771
vn -0.56743842363357544 0.28291055560112 -0.77328860759735107
vn -0.39055740833282471 0.21314793825149536 -0.89556288719177246
vn -0.1625133752822876 0.13803724944591522 -0.97700315713882446
vn 0.030396580696105957 0.041108615696430206 -0.99869221448898315
vn 0.036775972694158554 0.041903231292963028 -0.99844461679458618
vn 0.88855135440826416 -0.014649122022092342 -0.45854318141937256
vn 0.87528163194656372 -0.063540473580360413 -0.47942119836807251
vn 0.74484217166900635 -0.10983733832836151 -0.6581382155418396
vn 0.55474674701690674 -0.17160934209823608 -0.81412917375564575
vn 0.36220160126686096 -0.18885274231433868 -0.91276758909225464
vn 0.35719910264015198 -0.19269959628582001 -0.91393417119979858
vn 0.23252911865711212 0.33086326718330383 0.91458171606063843
vn 0.17334885895252228 0.15250420570373535 0.97298133373260498
vn 0.39464372396469116 0.2761375904083252 0.87635856866836548
vn 0.4092259407043457 -0.026337753981351852 0.91205286979675293
vn 0.034425299614667892 -0.22226925194263458 0.97437739372253418
vn 0.68186050653457642 0.14075453579425812 0.717812180519104
vn 0.63977909088134766 -0.16602587699890137 0.7504119873046875
vn 0.42690476775169373 -0.29573270678520203 0.85457271337509155
vn 0.59561091661453247 -0.31343135237693787 0.73960018157958984
vn 0.025910936295986176 0.027162220329046249 0.99929517507553101
vn -0.1655045747756958 0.024018488824367523 0.98591649532318115
vn 0.10547534376382828 -0.16086825728416443 0.98132377862930298
vn -0.17502593994140625 -0.29920724034309387 0.93799835443496704
vn -0.53890031576156616 0.0059817712754011154 0.84234833717346191
vn 0.25355604290962219 -0.51416230201721191 0.81935733556747437
vn -0.17612645030021667 -0.60205227136611938 0.77878910303115845
vn -0.45659253001213074 -0.42305213212966919 0.78265583515167236
vn -0.36799973249435425 -0.59713715314865112 0.71274363994598389
vn 0.27925074100494385 -0.39073753356933594 0.87712210416793823
vn 0.10635823011398315 -0.31931900978088379 0.94165986776351929
vn 0.2260606586933136 -0.49933576583862305 0.83639723062515259
vn -0.073490478098392487 -0.44347551465034485 0.89326852560043335
vn -0.25215262174606323 -0.13822303712368011 0.95776480436325073
vn 0.10855696350336075 -0.69196361303329468 0.71372383832931519
vn -0.35981783270835876 -0.34577903151512146 0.86658406257629395
vn -0.24314448237419128 -0.54558700323104858 0.80200719833374023
vn -0.40520358085632324 -0.44139918684959412 0.80061030387878418
vn -0.66232568025588989 -0.2054545134305954 0.72049504518508911
vn -0.52559804916381836 -0.14118076860904694 0.83893662691116333
vn -0.7685706615447998 -0.050936784595251083 0.63773393630981445
vn -0.59853798151016235 0.1724017858505249 0.78232336044311523
vn -0.18616403639316559 0.015473011881113052 0.98239684104919434
vn -0.88334405422210693 0.26182329654693604 0.38878250122070313
vn -0.59728783369064331 0.48351308703422546 0.63989245891571045
vn -0.3495037853717804 0.40178295969963074 0.84641450643539429
vn -0.42308521270751953 0.5494036078453064 0.72052377462387085
vn -0.42079758644104004 0.24915815889835358 0.87226694822311401
vn -0.24003073573112488 0.25608369708061218 0.93637937307357788
vn -0.47225931286811829 0.42159703373908997 0.77409762144088745
vn -0.18781714141368866 0.55359393358230591 0.81133133172988892
vn 0.15985997021198273 0.24851837754249573 0.95534467697143555
vn -0.51693856716156006 0.71015751361846924 0.47796529531478882
vn -0.10086403042078018 0.80041295289993286 0.59090232849121094
vn 0.14069122076034546 0.64073961973190308 0.75475740432739258
vn 0.1004692018032074 0.78504425287246704 0.61123764514923096
f 1/1/1 2/2/2 3/3/3
f 4/4/4 5/5/5 6/6/6
f 7/7/7 8/8/8 9/9/9
f 8/8/8 10/10/10 11/11/11
f 12/12/12 11/11/11 10/10/10
f 13/13/13 14/14/14 15/15/15
f 16/16/16 15/15/15 14/14/14
f 17/17/17 18/18/18 19/19/19
f 20/20/20 19/19/19 18/18/18
f 21/21/21 22/22/22 23/23/23
f 24/24/24 23/23/23 22/22/22
f 23/23/23 24/24/24 25/25/25
f 26/26/26 25/25/25 24/24/24
f 27/27/27 28/28/28 29/29/29
f 30/30/30 29/29/29 28/28/28
f 29/29/29 30/30/30 31/31/31
f 32/32/32 31/31/31 30/30/30
f 33/33/33 34/34/34 35/35/35
f 36/36/36 35/35/35 34/34/34
f 35/35/35 36/36/36 37/37/37
f 38/38/38 37/37/37 36/36/36
f 39/39/39 40/40/40 41/41/41
f 42/42/42 41/41/41 40/40/40
f 41/41/41 42/42/42 43/43/43
f 44/44/44 43/43/43 42/42/42
f 45/45/45 46/46/46 47/47/47
f 48/48/48 47/47/47 46/46/46
f 47/47/47 48/48/48 49/49/49
f 50/50/50 49/49/49 48/48/48
f 51/51/51 52/52/52 53/53/53
f 54/54/54 53/53/53 52/52/52
f 53/53/53 54/54/54 55/55/55
f 56/56/56 55/55/55 54/54/54
f 56/56/56 54/54/54 57/57/57
f 58/58/58 57/57/57 54/54/54
f 56/56/56 57/57/57 59/59/59
f 60/60/60 61/61/61 62/62/62
f 63/63/63 62/62/62 61/61/61
f 62/62/62 63/63/63 64/64/64
f 65/65/65 64/64/64 63/63/63
f 66/66/66 67/67/67 68/68/68
f 69/69/69 68/68/68 67/67/67
f 68/68/68 69/69/69 70/70/70
f 71/71/71 70/70/70 69/69/69
f 72/72/72 73/73/73 74/74/74
f 75/75/75 74/74/74 73/73/73
f 73/73/73 76/76/76 75/75/75
f 74/74/74 75/75/75 77/77/77
f 78/78/78 77/77/77 75/75/75
f 76/76/76 79/79/79 75/75/75
f 78/78/78 75/75/75 79/79/79
f 79/79/79 80/80/80 78/78/78
f 81/81/81 82/82/82 83/83/83
f 84/84/84 83/83/83 82/82/82
f 84/84/84 82/82/82 85/85/85
f 83/83/83 84/84/84 86/86/86
f 87/87/87 86/86/86 84/84/84
f 85/85/85 88/88/88 84/84/84
f 87/87/87 84/84/84 88/88/88
f 88/88/88 89/89/89 87/87/87
f 90/90/90 91/91/91 92/92/92
f 93/93/93 92/92/92 91/91/91
f 91/91/91 94/94/94 93/93/93
f 92/92/92 93/93/93 95/95/95
f 93/93/93 94/94/94 96/96/96
f 95/95/95 93/93/93 97/97/97
f 96/96/96 97/97/97 93/93/93
f 97/97/97 96/96/96 98/98/98
f 99/99/99 100/100/100 101/101/101
f 102/102/102 101/101/101 100/100/100
f 102/102/102 100/100/100 103/103/103
f 101/101/101 102/102/102 104/104/104
f 105/105/105 104/104/104 102/102/102
f 103/103/103 106/106/106 102/102/102
f 105/105/105 102/102/102 106/106/106
f 106/106/106 107/107/107 105/105/105
f 108/108/108 109/109/109 110/110/110
f 111/111/111 110/110/110 109/109/109
f 111/111/111 109/109/109 112/112/112
f 110/110/110 111/111/111 113/113/113
f 114/114/114 113/113/113 111/111/111
f 112/112/112 115/115/115 111/111/111
f 114/114/114 111/111/111 115/115/115
f 115/115/115 116/116/116 114/114/114
